# xmcd CD database file
# Copyright (C) 1995-1998 Ti Kan
#
# Track frame offsets:
#	183
#	12915
#	25918
#	38313
#	52450
#	65923
#	78928
#	93845
#	108835
#	123195
#	135793
#	151425
#	163928
#	177988
#	191215
#	204630
#	216898
#	228253
#	240953
#	251455
#	264418
#	277280
#	291273
#	303515
#
# Disc length: 4196 seconds
#
# Revision: 1
# Processed by: cddbd v1.4PL0 Copyright (c) Steve Scherf et al.
# Submitted via: CDex 1.30Release
#
DISCID=52106218
DTITLE=Jimmy Rogers - Thats all right
DYEAR=1900
DGENRE=Blues
TTITLE0=That's all right
TTITLE1=Ludella
TTITLE2=Goin' away baby
TTITLE3=Today, today blues
TTITLE4=The world's in a tangle
TTITLE5=She loves another man
TTITLE6=Money, marbles and chalk
TTITLE7=Chance to love
TTITLE8=Back door friend
TTITLE9=Crying Shame
TTITLE10=Mistreated baby
TTITLE11=The last time
TTITLE12=Out on the road
TTITLE13=Left me with a broken heart
TTITLE14=Act like you love me
TTITLE15=Chicago bound
TTITLE16=You're the one
TTITLE17=Walking by myself
TTITLE18=My baby don't love me no more
TTITLE19=This has never been
TTITLE20=Rock this track
TTITLE21=My last meal
TTITLE22=You don't know
TTITLE23=Can't keep from worrying
EXTD=ID3G:   0
EXTT0=
EXTT1=
EXTT2=
EXTT3=
EXTT4=
EXTT5=
EXTT6=
EXTT7=
EXTT8=
EXTT9=
EXTT10=
EXTT11=
EXTT12=
EXTT13=
EXTT14=
EXTT15=
EXTT16=
EXTT17=
EXTT18=
EXTT19=
EXTT20=
EXTT21=
EXTT22=
EXTT23=
PLAYORDER=
